<?xml version="1.0" encoding="UTF-8" standalone="no"?>
<!-- Created with Inkscape (http://www.inkscape.org/) -->

<svg
   width="18.890839mm"
   height="23.165623mm"
   viewBox="0 0 18.890839 23.165623"
   version="1.1"
   id="svg5"
   xmlns="http://www.w3.org/2000/svg"
   xmlns:svg="http://www.w3.org/2000/svg">
  <defs
     id="defs2" />
  <g
     id="layer1"
     transform="translate(-61.126001,-42.614878)">
    <path
       id="rect1105"
       style="fill:#3f96dc;fill-opacity:1;stroke:#000000;stroke-width:0.196007;stroke-linejoin:round"
       d="m 72.782121,43.333789 c -0.551265,0.01387 -1.085255,0.293568 -1.405599,0.7953 l -9.881568,15.477609 c -0.51255,0.802773 -0.27929,1.861464 0.523483,2.374015 l 5.373315,3.430798 c 0.802772,0.512551 1.861465,0.278774 2.374015,-0.523999 l 9.882085,-15.477608 c 0.51255,-0.802772 0.278774,-1.861465 -0.523999,-2.374015 L 73.751054,43.60509 c -0.30104,-0.192206 -0.638175,-0.279624 -0.968933,-0.271301 z m 1.437121,2.970361 a 2.5974686,2.5974686 0 0 1 1.476396,0.406694 2.5974686,2.5974686 0 0 1 0.791166,3.587378 2.5974686,2.5974686 0 0 1 -3.586861,0.791683 2.5974686,2.5974686 0 0 1 -0.791683,-3.587378 2.5974686,2.5974686 0 0 1 2.110982,-1.198377 z" />
    <path
       style="fill:none;stroke:#000000;stroke-width:0.165;stroke-linejoin:round;stroke-dasharray:none;stroke-opacity:1"
       d="m 75.580644,46.575374 c -0.02331,0.075 -0.165577,0.185206 -0.149064,0.196173 0.09237,0.06135 0.40763,-0.488817 0.567526,-0.762665 0.159896,-0.273848 0.577725,-0.783581 0.478549,-0.880728 -0.593266,-0.490478 -0.622556,0.161804 -0.852237,0.658251 -0.09119,0.165386 -0.457934,0.823095 -0.410762,0.868657 0.06396,0.06177 0.07623,0.01723 0.131741,-0.03783 m 0.839366,-1.536836 c 0.193827,-0.280015 0.08147,-0.232908 1.093741,-1.213244 l -6e-6,-6e-6 c 0.268179,-0.254887 0.415235,-0.406974 0.787291,-0.702947 0.372056,-0.295973 1.0428,-0.690351 1.171164,-0.309569 0.128364,0.380781 0.0091,0.555262 -0.449516,0.860585 -0.458612,0.305321 -1.179597,0.538805 -1.572352,0.756157 -0.306668,0.179967 -0.569471,0.281528 -0.889173,0.695921"
       id="path1176" />
  </g>
</svg>
